<svg xmlns="http://www.w3.org/2000/svg" width="16" height="16"><g fill="none" fill-rule="evenodd"><path stroke="#3F95A5" stroke-linecap="round" stroke-linejoin="round" d="M4.5 13.5 3.05 8.42M2.99 4.56a2 2 0 1 0 .06 3.86L4.5 13.5"/><path stroke="#B33E5B" stroke-linecap="round" stroke-linejoin="round" d="m2.5 6.5 3.88-2.82A2 2 0 1 1 10 2.3"/><path stroke="#3F95A5" stroke-linecap="round" stroke-linejoin="round" d="M14.3 8.33a2 2 0 1 0-2.43-3L8.01 2.5"/><path stroke="#6A9E4B" stroke-linecap="round" stroke-linejoin="round" d="M10.06 14.89a2 2 0 1 0 2-3.3l1.44-5.09"/><path stroke="#7762C2" stroke-linecap="round" stroke-linejoin="round" d="M11.5 13.5h-5a2 2 0 1 1-3.73-1"/><circle cx="11.5" cy="13.5" r="1" fill="#7762C2"/><circle cx="4.5" cy="13.5" r="1" fill="#3F95A5"/><circle cx="2.5" cy="6.5" r="1" fill="#B33E5B"/><circle cx="8" cy="2.5" r="1" fill="#3F95A5"/><circle cx="13.5" cy="6.5" r="1" fill="#6A9E4B"/></g></svg>